<svg xmlns="http://www.w3.org/2000/svg" xmlns:xlink="http://www.w3.org/1999/xlink" xmlns:lucid="lucid" width="1814.42" height="1165"><g transform="translate(-40 -55)" lucid:page-tab-id="0_0"><path d="M0 0h1870.4v1323.2H0z" fill="#fff"/><path d="M60 80h320v180H60z" stroke="#000" stroke-width="2" fill="#fff"/><use xlink:href="#a" transform="matrix(1,0,0,1,65,85) translate(119.55 88.60000000000001)"/><path d="M382 170h268.5" stroke="#000" stroke-width="2" fill="none"/><path d="M382.03 171H381v-2h1.03z"/><path d="M665.76 170l-14.26 4.64v-9.28z" stroke="#000" stroke-width="2"/><use xlink:href="#b" transform="matrix(1,0,0,1,408.675,144.39999999999998) translate(0 14.4)"/><use xlink:href="#c" transform="matrix(1,0,0,1,408.675,144.39999999999998) translate(62.900000000000006 14.4)"/><use xlink:href="#d" transform="matrix(1,0,0,1,408.675,144.39999999999998) translate(155.75 14.4)"/><path d="M670 75h340v190H670zm34 0v190m-34-156h340" stroke="#000" stroke-width="2" fill="#fff"/><use xlink:href="#e" transform="matrix(1,0,0,1,709,114) translate(84.6 76.60000000000001)"/><path d="M1500 810.5h220v118.4h-220zm22 0v118.4m-22-96.4h220" stroke="#000" stroke-width="2" fill="#fff"/><use xlink:href="#f" transform="matrix(1,0,0,1,1527,837.5000000000001) translate(-5.824999999999989 47.1)"/><path d="M1260 839.7h30v20h-30zM1290 839.7h30v20h-30zM1320 839.7h30v20h-30zM1260 859.7h30v20h-30zM1290 859.7h30v20h-30zM1320 859.7h30v20h-30zM1260 879.7h30v20h-30zM1290 879.7h30v20h-30zM1320 879.7h30v20h-30z" fill="#fff"/><path d="M1260 839.7v20M1290 839.7v20M1320 839.7v20M1350 839.7v20M1260 859.7v20M1290 859.7v20M1320 859.7v20M1350 859.7v20M1260 879.7v20M1290 879.7v20M1320 879.7v20M1350 879.7v20M1260 839.7h30M1290 839.7h30M1320 839.7h30M1260 859.7h30M1290 859.7h30M1320 859.7h30M1260 879.7h30M1260 899.7h30M1290 879.7h30M1290 899.7h30M1320 879.7h30M1320 899.7h30" stroke="#000" fill="none"/><path d="M1155.82 879.84h51.34v-9.47H1241" stroke="#000" stroke-width="2" fill="none"/><path d="M1155.85 880.84h-1.03v-2h1.03z"/><path d="M1256.26 870.37L1242 875v-9.27z" stroke="#000" stroke-width="2"/><path d="M1351.5 869.7h129" stroke="#000" stroke-width="2" fill="none"/><path d="M1351.53 870.7h-1.03v-2h1.03z"/><path d="M1495.76 869.7l-14.26 4.64v-9.28z" stroke="#000" stroke-width="2"/><use xlink:href="#b" transform="matrix(1,0,0,1,1366.375,844.1000000000003) translate(0 14.4)"/><use xlink:href="#g" transform="matrix(1,0,0,1,1366.375,844.1000000000003) translate(62.900000000000006 14.4)"/><path d="M540 754h80v40h-80z" stroke="#000" stroke-width="2" fill="#fff"/><use xlink:href="#h" transform="matrix(1,0,0,1,545,759) translate(6.524999999999999 18.6)"/><use xlink:href="#i" transform="matrix(1,0,0,1,545,759) translate(53.475 18.6)"/><path d="M681.82 833h-29.9v-59H639.5" stroke="#000" stroke-width="2" fill="none"/><path d="M682.82 834h-1.02v-2h1.02z"/><path d="M624.24 774l14.26-4.64v9.28z" stroke="#000" stroke-width="2"/><path d="M538 774H279.5" stroke="#000" stroke-width="2" fill="none"/><path d="M539 775h-1.03v-2H539z"/><path d="M264.24 774l14.26-4.64v9.28z" stroke="#000" stroke-width="2"/><use xlink:href="#b" transform="matrix(1,0,0,1,285.425,748.4000000000001) translate(0 14.4)"/><use xlink:href="#j" transform="matrix(1,0,0,1,285.425,748.4000000000001) translate(62.900000000000006 14.4)"/><use xlink:href="#k" transform="matrix(1,0,0,1,285.425,748.4000000000001) translate(150.75 14.4)"/><use xlink:href="#l" transform="matrix(1,0,0,1,285.425,748.4000000000001) translate(166.25 14.4)"/><use xlink:href="#i" transform="matrix(1,0,0,1,285.425,748.4000000000001) translate(219.15 14.4)"/><path d="M60 703.2h200v141.6H60zm20 0v141.6M60 723.2h200" stroke="#000" stroke-width="2" fill="#fff"/><use xlink:href="#m" transform="matrix(1,0,0,1,85,728.2) translate(-1.875 59.6)"/><path d="M160 701.2V639h643.1v21.5" stroke="#000" stroke-width="2" fill="none"/><path d="M161 702.2h-2v-1.03h2z"/><path d="M803.1 675.76l-4.63-14.26h9.27z" stroke="#000" stroke-width="2"/><use xlink:href="#n" transform="matrix(1,0,0,1,270.1378437592148,643) translate(0 14.4)"/><use xlink:href="#o" transform="matrix(1,0,0,1,270.1378437592148,643) translate(73.95 14.4)"/><use xlink:href="#p" transform="matrix(1,0,0,1,270.1378437592148,643) translate(116.85000000000001 14.4)"/><use xlink:href="#k" transform="matrix(1,0,0,1,270.1378437592148,643) translate(185.70000000000002 14.4)"/><use xlink:href="#q" transform="matrix(1,0,0,1,270.1378437592148,643) translate(201.20000000000002 14.4)"/><use xlink:href="#r" transform="matrix(1,0,0,1,270.1378437592148,643) translate(248.15000000000003 14.4)"/><use xlink:href="#s" transform="matrix(1,0,0,1,270.1378437592148,643) translate(0 36)"/><path d="M1340 536.5h160v120h-160z" stroke="#000" stroke-width="2" fill="#fff"/><use xlink:href="#t" transform="matrix(1,0,0,1,1345,541.5) translate(7.549999999999997 58.6)"/><path d="M1680.67 808.5V435.4H1569.5" stroke="#000" stroke-width="2" fill="none"/><path d="M1681.67 809.5h-2v-1.03h2z"/><path d="M1554.24 435.4l14.26-4.64v9.28z" stroke="#000" stroke-width="2"/><use xlink:href="#u" transform="matrix(1,0,0,1,1568.9457994949503,388.19999999999993) translate(0 14.4)"/><use xlink:href="#v" transform="matrix(1,0,0,1,1568.9457994949503,388.19999999999993) translate(39.95 14.4)"/><use xlink:href="#w" transform="matrix(1,0,0,1,1568.9457994949503,388.19999999999993) translate(65.95 14.4)"/><use xlink:href="#x" transform="matrix(1,0,0,1,1568.9457994949503,388.19999999999993) translate(0 36)"/><use xlink:href="#n" transform="matrix(1,0,0,1,1688.6666666666667,605.777363171426) translate(0 14.4)"/><use xlink:href="#y" transform="matrix(1,0,0,1,1688.6666666666667,605.777363171426) translate(73.95 14.4)"/><use xlink:href="#z" transform="matrix(1,0,0,1,1688.6666666666667,605.777363171426) translate(118.85 14.4)"/><path d="M1338 596.5h-175V560h-3.5" stroke="#000" stroke-width="2" fill="none"/><path d="M1339 597.5h-1.03v-2h1.03z"/><path d="M1144.24 560l14.26-4.64v9.28z" stroke="#000" stroke-width="2"/><use xlink:href="#b" transform="matrix(1,0,0,1,1178.0586587339087,570.9) translate(0 14.4)"/><use xlink:href="#A" transform="matrix(1,0,0,1,1178.0586587339087,570.9) translate(62.900000000000006 14.4)"/><use xlink:href="#B" transform="matrix(1,0,0,1,1178.0586587339087,570.9) translate(114.80000000000001 14.4)"/><path d="M920 460h220v120H920zm22 0v120m-22-98h220" stroke="#000" stroke-width="2" fill="#fff"/><use xlink:href="#C" transform="matrix(1,0,0,1,947,487) translate(-3.8499999999999943 47.6)"/><path d="M918 520h-39v119h106.87v21.5" stroke="#000" stroke-width="2" fill="none"/><path d="M919 521h-1.03v-2H919z"/><path d="M985.87 675.76l-4.64-14.26h9.27z" stroke="#000" stroke-width="2"/><use xlink:href="#n" transform="matrix(1,0,0,1,944.2699821002263,616.773792499674) translate(0 14.4)"/><use xlink:href="#D" transform="matrix(1,0,0,1,944.2699821002263,616.773792499674) translate(73.95 14.4)"/><path d="M1358 435.4h-108v59.27h-90.5" stroke="#000" stroke-width="2" fill="none"/><path d="M1359 436.4h-1.03v-2h1.03z"/><path d="M1144.24 494.67l14.26-4.64v9.27z" stroke="#000" stroke-width="2"/><use xlink:href="#b" transform="matrix(1,0,0,1,1111.819410723747,410.7369874076506) translate(0 14.4)"/><use xlink:href="#E" transform="matrix(1,0,0,1,1111.819410723747,410.7369874076506) translate(62.900000000000006 14.4)"/><use xlink:href="#F" transform="matrix(1,0,0,1,1111.819410723747,410.7369874076506) translate(141.75 14.4)"/><use xlink:href="#G" transform="matrix(1,0,0,1,1111.819410723747,410.7369874076506) translate(178.65 14.4)"/><path d="M1610 808.5v-212h-90.5" stroke="#000" stroke-width="2" fill="none"/><path d="M1611 809.5h-2v-1.03h2z"/><path d="M1504.24 596.5l14.26-4.64v9.28z" stroke="#000" stroke-width="2"/><use xlink:href="#u" transform="matrix(1,0,0,1,1541.1112342320155,549.3) translate(0 14.4)"/><use xlink:href="#H" transform="matrix(1,0,0,1,1541.1112342320155,549.3) translate(39.95 14.4)"/><use xlink:href="#I" transform="matrix(1,0,0,1,1541.1112342320155,549.3) translate(60.45 14.4)"/><use xlink:href="#J" transform="matrix(1,0,0,1,1541.1112342320155,549.3) translate(0 36)"/><use xlink:href="#K" transform="matrix(1,0,0,1,1541.1112342320155,549.3) translate(20.95 36)"/><use xlink:href="#n" transform="matrix(1,0,0,1,1447.25,739.9895501375827) translate(0 14.4)"/><use xlink:href="#y" transform="matrix(1,0,0,1,1447.25,739.9895501375827) translate(73.95 14.4)"/><use xlink:href="#z" transform="matrix(1,0,0,1,1447.25,739.9895501375827) translate(118.85 14.4)"/><path d="M840 266v387.5M840 266.03V265" stroke="#000" stroke-width="2" fill="none"/><path d="M840 668.76l-4.64-14.26h9.28z" stroke="#000" stroke-width="2"/><use xlink:href="#L" transform="matrix(1,0,0,1,737.15,301.5333333333333) translate(0 14.4)"/><use xlink:href="#M" transform="matrix(1,0,0,1,737.15,301.5333333333333) translate(42.900000000000006 14.4)"/><use xlink:href="#L" transform="matrix(1,0,0,1,599.25,382.28328815443496) translate(0 14.4)"/><use xlink:href="#N" transform="matrix(1,0,0,1,599.25,382.28328815443496) translate(42.900000000000006 14.4)"/><use xlink:href="#O" transform="matrix(1,0,0,1,599.25,382.28328815443496) translate(124.85000000000001 14.4)"/><use xlink:href="#P" transform="matrix(1,0,0,1,599.25,382.28328815443496) translate(206.75 14.4)"/><use xlink:href="#Q" transform="matrix(1,0,0,1,848,351.3391521846366) translate(0 14.4)"/><use xlink:href="#R" transform="matrix(1,0,0,1,848,351.3391521846366) translate(78.95 14.4)"/><use xlink:href="#S" transform="matrix(1,0,0,1,848,351.3391521846366) translate(130.85 14.4)"/><use xlink:href="#L" transform="matrix(1,0,0,1,848,351.3391521846366) translate(0 36)"/><use xlink:href="#T" transform="matrix(1,0,0,1,848,351.3391521846366) translate(42.900000000000006 36)"/><use xlink:href="#k" transform="matrix(1,0,0,1,848,351.3391521846366) translate(82.85000000000001 36)"/><use xlink:href="#q" transform="matrix(1,0,0,1,848,351.3391521846366) translate(98.35000000000001 36)"/><use xlink:href="#U" transform="matrix(1,0,0,1,848,351.3391521846366) translate(145.3 36)"/><use xlink:href="#V" transform="matrix(1,0,0,1,848,351.3391521846366) translate(160.3 36)"/><use xlink:href="#U" transform="matrix(1,0,0,1,848,351.3391521846366) translate(213.20000000000002 36)"/><use xlink:href="#W" transform="matrix(1,0,0,1,848,351.3391521846366) translate(228.20000000000002 36)"/><use xlink:href="#X" transform="matrix(1,0,0,1,848,351.3391521846366) translate(317.05 36)"/><use xlink:href="#Y" transform="matrix(1,0,0,1,848,351.3391521846366) translate(361.05 36)"/><use xlink:href="#Z" transform="matrix(1,0,0,1,848,351.3391521846366) translate(441.95000000000005 36)"/><use xlink:href="#L" transform="matrix(1,0,0,1,848,351.3391521846366) translate(0 57.6)"/><use xlink:href="#p" transform="matrix(1,0,0,1,848,351.3391521846366) translate(42.900000000000006 57.6)"/><use xlink:href="#k" transform="matrix(1,0,0,1,848,351.3391521846366) translate(111.75000000000001 57.6)"/><use xlink:href="#q" transform="matrix(1,0,0,1,848,351.3391521846366) translate(127.25000000000001 57.6)"/><use xlink:href="#aa" transform="matrix(1,0,0,1,848,351.3391521846366) translate(174.20000000000002 57.6)"/><use xlink:href="#s" transform="matrix(1,0,0,1,848,351.3391521846366) translate(0 79.20000000000002)"/><use xlink:href="#n" transform="matrix(1,0,0,1,848.0000000000001,295.77835858395116) translate(0 14.4)"/><use xlink:href="#o" transform="matrix(1,0,0,1,848.0000000000001,295.77835858395116) translate(73.95 14.4)"/><use xlink:href="#T" transform="matrix(1,0,0,1,848.0000000000001,295.77835858395116) translate(116.85000000000001 14.4)"/><use xlink:href="#k" transform="matrix(1,0,0,1,848.0000000000001,295.77835858395116) translate(156.8 14.4)"/><use xlink:href="#q" transform="matrix(1,0,0,1,848.0000000000001,295.77835858395116) translate(172.3 14.4)"/><use xlink:href="#ab" transform="matrix(1,0,0,1,848.0000000000001,295.77835858395116) translate(219.25 14.4)"/><use xlink:href="#o" transform="matrix(1,0,0,1,848.0000000000001,295.77835858395116) translate(239.25 14.4)"/><use xlink:href="#p" transform="matrix(1,0,0,1,848.0000000000001,295.77835858395116) translate(282.15 14.4)"/><use xlink:href="#k" transform="matrix(1,0,0,1,848.0000000000001,295.77835858395116) translate(351 14.4)"/><use xlink:href="#q" transform="matrix(1,0,0,1,848.0000000000001,295.77835858395116) translate(366.5 14.4)"/><use xlink:href="#ac" transform="matrix(1,0,0,1,848.0000000000001,295.77835858395116) translate(413.45 14.4)"/><use xlink:href="#ad" transform="matrix(1,0,0,1,848.0000000000001,295.77835858395116) translate(0 36)"/><use xlink:href="#ae" transform="matrix(1,0,0,1,848.0000000000001,295.77835858395116) translate(107.80000000000001 36)"/><path d="M683.82 680h470v306h-470z" stroke="#000" stroke-width="2" fill="#fff"/><use xlink:href="#af" transform="matrix(1,0,0,1,688.8235294117648,685) translate(178.05 151.6)"/><path d="M826.3 692.85h41.48v30.6H826.3zM867.78 692.85h102.1v30.6h-102.1z" fill="#fff"/><path d="M969.87 692.85h41.47v30.6h-41.47zM826.3 723.45h41.48v48.35H826.3zM867.78 723.45h102.1v48.35h-102.1z" fill="#fff"/><path d="M969.87 723.45h41.47v48.35h-41.47zM826.3 771.8h41.48v30.6H826.3z" fill="#fff"/><path d="M867.78 771.8h102.1v30.6h-102.1z" fill="#fff"/><path d="M969.87 771.8h41.47v30.6h-41.47z" fill="#fff"/><path d="M826.3 692.85v30.6M867.78 692.85v30.6M969.87 692.85v30.6M1011.34 692.85v30.6M826.3 723.45v48.35M867.78 723.45v48.35M969.87 723.45v48.35M1011.34 723.45v48.35M826.3 771.8v30.6M867.78 771.8v30.6M969.87 771.8v30.6M1011.34 771.8v30.6M826.3 692.85h41.48M867.78 692.85h102.1M969.87 692.85h41.47M826.3 723.45h41.48M867.78 723.45h102.1M969.87 723.45h41.47M826.3 771.8h41.48M826.3 802.4h41.48M867.78 771.8h102.1M867.78 802.4h102.1M969.87 771.8h41.47M969.87 802.4h41.47" stroke="#000" fill="none"/><g><use xlink:href="#ag" transform="matrix(1,0,0,1,872.7801470588236,728.4519999999999) translate(14.574999999999996 23.1)"/></g><path d="M697.65 869.2h88.1v36.5h-88.1z" stroke="#000" stroke-width="2" fill="#fff"/><g><use xlink:href="#h" transform="matrix(1,0,0,1,702.6470588235295,874.2) translate(11.024999999999999 17.1)"/><use xlink:href="#ah" transform="matrix(1,0,0,1,702.6470588235295,874.2) translate(57.975 17.1)"/></g><path d="M785.74 869.2h88.08v36.5h-88.08z" stroke="#000" stroke-width="2" fill="#fff"/><g><use xlink:href="#h" transform="matrix(1,0,0,1,790.7352941176472,874.2) translate(11.024999999999999 17.1)"/><use xlink:href="#i" transform="matrix(1,0,0,1,790.7352941176472,874.2) translate(57.975 17.1)"/></g><path d="M1029.4 869.2H1140v36.5h-110.6z" stroke="#000" stroke-width="2" fill="#fff"/><g><use xlink:href="#ai" transform="matrix(1,0,0,1,1034.4117647058824,874.1999999999999) translate(23 17.1)"/></g><path d="M885.6 869.2h138.22v36.5H885.6z" stroke="#000" stroke-width="2" fill="#fff"/><g><use xlink:href="#aj" transform="matrix(1,0,0,1,890.5882352941177,874.2) translate(22.525 17.1)"/><use xlink:href="#ak" transform="matrix(1,0,0,1,890.5882352941177,874.2) translate(54.475 17.1)"/></g><path d="M885.6 905.7h134.7v53.2H885.6z" stroke="#000" stroke-opacity="0" stroke-width="2" fill="#fff" fill-opacity="0"/><g><use xlink:href="#al" transform="matrix(1,0,0,1,890.5882352941177,910.7000000000002) translate(0.5999999999999943 14.799999999999999)"/><use xlink:href="#x" transform="matrix(1,0,0,1,890.5882352941177,910.7000000000002) translate(25.799999999999997 36.4)"/></g><path d="M1017.35 905.7h134.7V946h-134.7z" stroke="#000" stroke-opacity="0" stroke-width="2" fill="#fff" fill-opacity="0"/><g><use xlink:href="#am" transform="matrix(1,0,0,1,1022.3529411764706,910.7000000000002) translate(21.849999999999994 19.1)"/></g><path d="M1360 360h190v150.8h-190z" stroke="#000" stroke-width="2" fill="#fff"/><g><use xlink:href="#an" transform="matrix(1,0,0,1,1365,365) translate(-1.9000000000000057 74.10000000000001)"/></g><path d="M1460 448.2h80v53.2h-80z" stroke="#000" stroke-width="2" fill="#fff"/><g><use xlink:href="#ao" transform="matrix(1,0,0,1,1465,453.20000000000005) translate(19.525 14.799999999999999)"/><use xlink:href="#ak" transform="matrix(1,0,0,1,1465,453.20000000000005) translate(9 36.4)"/></g><path d="M777.76 988v52.5" stroke="#000" stroke-width="2" fill="none"/><path d="M778.76 988.03h-2V987h2z"/><path d="M777.76 1055.76l-4.63-14.26h9.27z" stroke="#000" stroke-width="2"/><path d="M60 1080h180v120H60zm18 0v120m-18-102h180" stroke="#000" stroke-width="2" fill="#fff"/><g><use xlink:href="#ap" transform="matrix(1,0,0,1,83,1103) translate(-3.325000000000003 49.6)"/></g><path d="M150 1078V879.52h514.32" stroke="#000" stroke-width="2" fill="none"/><path d="M151 1079h-2v-1.03h2z"/><path d="M679.6 879.52l-14.28 4.63v-9.27z" stroke="#000" stroke-width="2"/><g><use xlink:href="#n" transform="matrix(1,0,0,1,158,896.4908194881285) translate(0 14.4)"/><use xlink:href="#D" transform="matrix(1,0,0,1,158,896.4908194881285) translate(73.95 14.4)"/></g><path d="M460 1080h160v120H460z" stroke="#000" stroke-width="2" fill="#fff"/><g><use xlink:href="#aq" transform="matrix(1,0,0,1,465,1085) translate(20.574999999999996 58.6)"/></g><path d="M458 1140H259.5" stroke="#000" stroke-width="2" fill="none"/><path d="M459 1141h-1.03v-2H459z"/><path d="M244.24 1140l14.26-4.64v9.28z" stroke="#000" stroke-width="2"/><g><use xlink:href="#b" transform="matrix(1,0,0,1,267.65,1114.3999999999999) translate(0 14.4)"/><use xlink:href="#ar" transform="matrix(1,0,0,1,267.65,1114.3999999999999) translate(62.900000000000006 14.4)"/><use xlink:href="#as" transform="matrix(1,0,0,1,267.65,1114.3999999999999) translate(137.8 14.4)"/></g><path d="M683.82 1060h180v120h-180zm18 0v120m-18-102h180" stroke="#000" stroke-width="2" fill="#fff"/><g><use xlink:href="#at" transform="matrix(1,0,0,1,706.8235294117648,1083) translate(9.149999999999991 38.8)"/><use xlink:href="#au" transform="matrix(1,0,0,1,706.8235294117648,1083) translate(34.574999999999996 60.4)"/></g><path d="M681.82 1120H639.5" stroke="#000" stroke-width="2" fill="none"/><path d="M682.82 1121h-1.02v-2h1.02z"/><path d="M624.24 1120l14.26-4.64v9.28z" stroke="#000" stroke-width="2"/><path d="M1082.43 988v73.5" stroke="#000" stroke-width="2" fill="none"/><path d="M1083.43 988.03h-2V987h2z"/><path d="M1082.43 1076.76l-4.63-14.26h9.27z" stroke="#000" stroke-width="2"/><path d="M1029.4 1080h160v120h-160zm16 0v120m-16-104h160" stroke="#000" stroke-width="2" fill="#fff"/><g><use xlink:href="#av" transform="matrix(1,0,0,1,1050.411764705903,1101) translate(-1.9250000000000114 50.6)"/></g><defs><path d="M24-231v-30h32v30H24zM24 0v-190h32V0H24" id="aw"/><path d="M117-194c89-4 53 116 60 194h-32v-121c0-31-8-49-39-48C34-167 62-67 57 0H25l-1-190h30c1 10-1 24 2 32 11-22 29-35 61-36" id="ax"/><path d="M85-194c31 0 48 13 60 33l-1-100h32l1 261h-30c-2-10 0-23-3-31C134-8 116 4 85 4 32 4 16-35 15-94c0-66 23-100 70-100zm9 24c-40 0-46 34-46 75 0 40 6 74 45 74 42 0 51-32 51-76 0-42-9-74-50-73" id="ay"/><path d="M100-194c63 0 86 42 84 106H49c0 40 14 67 53 68 26 1 43-12 49-29l28 8c-11 28-37 45-77 45C44 4 14-33 15-96c1-61 26-98 85-98zm52 81c6-60-76-77-97-28-3 7-6 17-6 28h103" id="az"/><path d="M141 0L90-78 38 0H4l68-98-65-92h35l48 74 47-74h35l-64 92 68 98h-35" id="aA"/><path d="M33 0v-38h34V0H33" id="aB"/><path d="M24-231v-30h32v30H24zM-9 49c24 4 33-6 33-30v-209h32V24c2 40-23 58-65 49V49" id="aC"/><path d="M135-143c-3-34-86-38-87 0 15 53 115 12 119 90S17 21 10-45l28-5c4 36 97 45 98 0-10-56-113-15-118-90-4-57 82-63 122-42 12 7 21 19 24 35" id="aD"/><path d="M115-194c55 1 70 41 70 98S169 2 115 4C84 4 66-9 55-30l1 105H24l-1-265h31l2 30c10-21 28-34 59-34zm-8 174c40 0 45-34 45-75s-6-73-45-74c-42 0-51 32-51 76 0 43 10 73 51 73" id="aE"/><g id="a"><use transform="matrix(0.05,0,0,0.05,0,0)" xlink:href="#aw"/><use transform="matrix(0.05,0,0,0.05,3.95,0)" xlink:href="#ax"/><use transform="matrix(0.05,0,0,0.05,13.949999999999998,0)" xlink:href="#ay"/><use transform="matrix(0.05,0,0,0.05,23.95,0)" xlink:href="#az"/><use transform="matrix(0.05,0,0,0.05,33.95,0)" xlink:href="#aA"/><use transform="matrix(0.05,0,0,0.05,42.95,0)" xlink:href="#aB"/><use transform="matrix(0.05,0,0,0.05,47.95,0)" xlink:href="#aC"/><use transform="matrix(0.05,0,0,0.05,51.900000000000006,0)" xlink:href="#aD"/><use transform="matrix(0.05,0,0,0.05,60.900000000000006,0)" xlink:href="#aE"/></g><path d="M30-248c87 1 191-15 191 75 0 78-77 80-158 76V0H30v-248zm33 125c57 0 124 11 124-50 0-59-68-47-124-48v98" id="aF"/><path d="M141-36C126-15 110 5 73 4 37 3 15-17 15-53c-1-64 63-63 125-63 3-35-9-54-41-54-24 1-41 7-42 31l-33-3c5-37 33-52 76-52 45 0 72 20 72 64v82c-1 20 7 32 28 27v20c-31 9-61-2-59-35zM48-53c0 20 12 33 32 33 41-3 63-29 60-74-43 2-92-5-92 41" id="aG"/><path d="M114-163C36-179 61-72 57 0H25l-1-190h30c1 12-1 29 2 39 6-27 23-49 58-41v29" id="aH"/><path d="M210-169c-67 3-38 105-44 169h-31v-121c0-29-5-50-35-48C34-165 62-65 56 0H25l-1-190h30c1 10-1 24 2 32 10-44 99-50 107 0 11-21 27-35 58-36 85-2 47 119 55 194h-31v-121c0-29-5-49-35-48" id="aI"/><path d="M33-154v-36h34v36H33zM33 0v-36h34V0H33" id="aJ"/><g id="b"><use transform="matrix(0.05,0,0,0.05,0,0)" xlink:href="#aF"/><use transform="matrix(0.05,0,0,0.05,12,0)" xlink:href="#aG"/><use transform="matrix(0.05,0,0,0.05,22,0)" xlink:href="#aH"/><use transform="matrix(0.05,0,0,0.05,27.950000000000003,0)" xlink:href="#aG"/><use transform="matrix(0.05,0,0,0.05,37.95,0)" xlink:href="#aI"/><use transform="matrix(0.05,0,0,0.05,52.900000000000006,0)" xlink:href="#aJ"/></g><path d="M84 4C-5 8 30-112 23-190h32v120c0 31 7 50 39 49 72-2 45-101 50-169h31l1 190h-30c-1-10 1-25-2-33-11 22-28 36-60 37" id="aK"/><path d="M190 0L58-211 59 0H30v-248h39L202-35l-2-213h31V0h-41" id="aL"/><path d="M68-38c1 34 0 65-14 84H32c9-13 17-26 17-46H33v-38h35" id="aM"/><g id="c"><use transform="matrix(0.05,0,0,0.05,0,0)" xlink:href="#aK"/><use transform="matrix(0.05,0,0,0.05,10,0)" xlink:href="#aD"/><use transform="matrix(0.05,0,0,0.05,19,0)" xlink:href="#az"/><use transform="matrix(0.05,0,0,0.05,29,0)" xlink:href="#aH"/><use transform="matrix(0.05,0,0,0.05,34.95,0)" xlink:href="#aL"/><use transform="matrix(0.05,0,0,0.05,47.900000000000006,0)" xlink:href="#aG"/><use transform="matrix(0.05,0,0,0.05,57.900000000000006,0)" xlink:href="#aI"/><use transform="matrix(0.05,0,0,0.05,72.85000000000001,0)" xlink:href="#az"/><use transform="matrix(0.05,0,0,0.05,82.85000000000001,0)" xlink:href="#aM"/></g><path d="M206 0h-36l-40-164L89 0H53L-1-190h32L70-26l43-164h34l41 164 42-164h31" id="aN"/><path d="M100-194c62-1 85 37 85 99 1 63-27 99-86 99S16-35 15-95c0-66 28-99 85-99zM99-20c44 1 53-31 53-75 0-43-8-75-51-75s-53 32-53 75 10 74 51 75" id="aO"/><g id="d"><use transform="matrix(0.05,0,0,0.05,0,0)" xlink:href="#aE"/><use transform="matrix(0.05,0,0,0.05,10,0)" xlink:href="#aG"/><use transform="matrix(0.05,0,0,0.05,20,0)" xlink:href="#aD"/><use transform="matrix(0.05,0,0,0.05,29,0)" xlink:href="#aD"/><use transform="matrix(0.05,0,0,0.05,38,0)" xlink:href="#aN"/><use transform="matrix(0.05,0,0,0.05,50.95,0)" xlink:href="#aO"/><use transform="matrix(0.05,0,0,0.05,60.95,0)" xlink:href="#aH"/><use transform="matrix(0.05,0,0,0.05,66.9,0)" xlink:href="#ay"/></g><path d="M30 0v-248h33v221h125V0H30" id="aP"/><path d="M177-190C167-65 218 103 67 71c-23-6-38-20-44-43l32-5c15 47 100 32 89-28v-30C133-14 115 1 83 1 29 1 15-40 15-95c0-56 16-97 71-98 29-1 48 16 59 35 1-10 0-23 2-32h30zM94-22c36 0 50-32 50-73 0-42-14-75-50-75-39 0-46 34-46 75s6 73 46 73" id="aQ"/><path d="M212-179c-10-28-35-45-73-45-59 0-87 40-87 99 0 60 29 101 89 101 43 0 62-24 78-52l27 14C228-24 195 4 139 4 59 4 22-46 18-125c-6-104 99-153 187-111 19 9 31 26 39 46" id="aR"/><g id="e"><use transform="matrix(0.05,0,0,0.05,0,0)" xlink:href="#aP"/><use transform="matrix(0.05,0,0,0.05,10,0)" xlink:href="#aO"/><use transform="matrix(0.05,0,0,0.05,20,0)" xlink:href="#aQ"/><use transform="matrix(0.05,0,0,0.05,30,0)" xlink:href="#aw"/><use transform="matrix(0.05,0,0,0.05,33.95,0)" xlink:href="#ax"/><use transform="matrix(0.05,0,0,0.05,43.95,0)" xlink:href="#aR"/><use transform="matrix(0.05,0,0,0.05,56.900000000000006,0)" xlink:href="#aO"/><use transform="matrix(0.05,0,0,0.05,66.9,0)" xlink:href="#aI"/><use transform="matrix(0.05,0,0,0.05,81.85000000000001,0)" xlink:href="#aI"/><use transform="matrix(0.05,0,0,0.05,96.80000000000001,0)" xlink:href="#aG"/><use transform="matrix(0.05,0,0,0.05,106.80000000000001,0)" xlink:href="#ax"/><use transform="matrix(0.05,0,0,0.05,116.80000000000001,0)" xlink:href="#ay"/></g><path d="M106-169C34-169 62-67 57 0H25v-261h32l-1 103c12-21 28-36 61-36 89 0 53 116 60 194h-32v-121c2-32-8-49-39-48" id="aS"/><path d="M266 0h-40l-56-210L115 0H75L2-248h35L96-30l15-64 43-154h32l59 218 59-218h35" id="aT"/><g id="f"><use transform="matrix(0.05,0,0,0.05,0,0)" xlink:href="#aR"/><use transform="matrix(0.05,0,0,0.05,12.950000000000001,0)" xlink:href="#aS"/><use transform="matrix(0.05,0,0,0.05,22.950000000000003,0)" xlink:href="#aG"/><use transform="matrix(0.05,0,0,0.05,32.95,0)" xlink:href="#ax"/><use transform="matrix(0.05,0,0,0.05,42.95,0)" xlink:href="#aQ"/><use transform="matrix(0.05,0,0,0.05,52.95,0)" xlink:href="#aw"/><use transform="matrix(0.05,0,0,0.05,56.900000000000006,0)" xlink:href="#ax"/><use transform="matrix(0.05,0,0,0.05,66.9,0)" xlink:href="#aQ"/><use transform="matrix(0.05,0,0,0.05,76.9,0)" xlink:href="#aT"/><use transform="matrix(0.05,0,0,0.05,93.85000000000001,0)" xlink:href="#aw"/><use transform="matrix(0.05,0,0,0.05,97.80000000000001,0)" xlink:href="#aD"/><use transform="matrix(0.05,0,0,0.05,106.80000000000001,0)" xlink:href="#aS"/><use transform="matrix(0.05,0,0,0.05,116.80000000000001,0)" xlink:href="#aR"/><use transform="matrix(0.05,0,0,0.05,129.75,0)" xlink:href="#aO"/><use transform="matrix(0.05,0,0,0.05,139.75,0)" xlink:href="#aI"/><use transform="matrix(0.05,0,0,0.05,154.7,0)" xlink:href="#aI"/><use transform="matrix(0.05,0,0,0.05,169.64999999999998,0)" xlink:href="#aG"/><use transform="matrix(0.05,0,0,0.05,179.64999999999998,0)" xlink:href="#ax"/><use transform="matrix(0.05,0,0,0.05,189.64999999999998,0)" xlink:href="#ay"/></g><path d="M33 0v-248h34V0H33" id="aU"/><path d="M30-248c118-7 216 8 213 122C240-48 200 0 122 0H30v-248zM63-27c89 8 146-16 146-99s-60-101-146-95v194" id="aV"/><g id="g"><use transform="matrix(0.05,0,0,0.05,0,0)" xlink:href="#aN"/><use transform="matrix(0.05,0,0,0.05,12.950000000000001,0)" xlink:href="#aw"/><use transform="matrix(0.05,0,0,0.05,16.900000000000002,0)" xlink:href="#aD"/><use transform="matrix(0.05,0,0,0.05,25.900000000000002,0)" xlink:href="#aS"/><use transform="matrix(0.05,0,0,0.05,35.900000000000006,0)" xlink:href="#aU"/><use transform="matrix(0.05,0,0,0.05,40.900000000000006,0)" xlink:href="#aV"/></g><path d="M108 0H70L1-190h34L89-25l56-165h34" id="aW"/><g id="h"><use transform="matrix(0.05,0,0,0.05,0,0)" xlink:href="#aL"/><use transform="matrix(0.05,0,0,0.05,12.950000000000001,0)" xlink:href="#aG"/><use transform="matrix(0.05,0,0,0.05,22.950000000000003,0)" xlink:href="#aW"/><use transform="matrix(0.05,0,0,0.05,31.950000000000003,0)" xlink:href="#ax"/></g><path d="M126-127c33 6 58 20 58 59 0 88-139 92-164 29-3-8-5-16-6-25l32-3c6 27 21 44 54 44 32 0 52-15 52-46 0-38-36-46-79-43v-28c39 1 72-4 72-42 0-27-17-43-46-43-28 0-47 15-49 41l-32-3c6-42 35-63 81-64 48-1 79 21 79 65 0 36-21 52-52 59" id="aX"/><use transform="matrix(0.05,0,0,0.05,0,0)" xlink:href="#aX" id="i"/><g id="j"><use transform="matrix(0.05,0,0,0.05,0,0)" xlink:href="#aK"/><use transform="matrix(0.05,0,0,0.05,10,0)" xlink:href="#aD"/><use transform="matrix(0.05,0,0,0.05,19,0)" xlink:href="#az"/><use transform="matrix(0.05,0,0,0.05,29,0)" xlink:href="#aH"/><use transform="matrix(0.05,0,0,0.05,34.95,0)" xlink:href="#aL"/><use transform="matrix(0.05,0,0,0.05,47.900000000000006,0)" xlink:href="#aG"/><use transform="matrix(0.05,0,0,0.05,57.900000000000006,0)" xlink:href="#aI"/><use transform="matrix(0.05,0,0,0.05,72.85000000000001,0)" xlink:href="#az"/></g><path d="M18-150v-26h174v26H18zm0 90v-26h174v26H18" id="aY"/><use transform="matrix(0.05,0,0,0.05,0,0)" xlink:href="#aY" id="k"/><g id="l"><use transform="matrix(0.05,0,0,0.05,0,0)" xlink:href="#aL"/><use transform="matrix(0.05,0,0,0.05,12.950000000000001,0)" xlink:href="#aG"/><use transform="matrix(0.05,0,0,0.05,22.950000000000003,0)" xlink:href="#aI"/><use transform="matrix(0.05,0,0,0.05,37.900000000000006,0)" xlink:href="#az"/></g><path d="M185-189c-5-48-123-54-124 2 14 75 158 14 163 119 3 78-121 87-175 55-17-10-28-26-33-46l33-7c5 56 141 63 141-1 0-78-155-14-162-118-5-82 145-84 179-34 5 7 8 16 11 25" id="aZ"/><g id="m"><use transform="matrix(0.05,0,0,0.05,0,0)" xlink:href="#aZ"/><use transform="matrix(0.05,0,0,0.05,12,0)" xlink:href="#az"/><use transform="matrix(0.05,0,0,0.05,22,0)" xlink:href="#az"/><use transform="matrix(0.05,0,0,0.05,32,0)" xlink:href="#aT"/><use transform="matrix(0.05,0,0,0.05,48.95,0)" xlink:href="#aw"/><use transform="matrix(0.05,0,0,0.05,52.900000000000006,0)" xlink:href="#aD"/><use transform="matrix(0.05,0,0,0.05,61.900000000000006,0)" xlink:href="#aS"/><use transform="matrix(0.05,0,0,0.05,71.9,0)" xlink:href="#az"/><use transform="matrix(0.05,0,0,0.05,81.9,0)" xlink:href="#aD"/><use transform="matrix(0.05,0,0,0.05,90.9,0)" xlink:href="#aR"/><use transform="matrix(0.05,0,0,0.05,103.85000000000001,0)" xlink:href="#aO"/><use transform="matrix(0.05,0,0,0.05,113.85000000000001,0)" xlink:href="#aI"/><use transform="matrix(0.05,0,0,0.05,128.8,0)" xlink:href="#aI"/><use transform="matrix(0.05,0,0,0.05,143.75,0)" xlink:href="#aG"/><use transform="matrix(0.05,0,0,0.05,153.75,0)" xlink:href="#ax"/><use transform="matrix(0.05,0,0,0.05,163.75,0)" xlink:href="#ay"/></g><g id="n"><use transform="matrix(0.05,0,0,0.05,0,0)" xlink:href="#aZ"/><use transform="matrix(0.05,0,0,0.05,12,0)" xlink:href="#az"/><use transform="matrix(0.05,0,0,0.05,22,0)" xlink:href="#aD"/><use transform="matrix(0.05,0,0,0.05,31,0)" xlink:href="#aD"/><use transform="matrix(0.05,0,0,0.05,40,0)" xlink:href="#aw"/><use transform="matrix(0.05,0,0,0.05,43.95,0)" xlink:href="#aO"/><use transform="matrix(0.05,0,0,0.05,53.95,0)" xlink:href="#ax"/><use transform="matrix(0.05,0,0,0.05,63.95,0)" xlink:href="#aJ"/></g><path d="M232-93c-1 65-40 97-104 97C67 4 28-28 28-90v-158h33c8 89-33 224 67 224 102 0 64-133 71-224h33v155" id="ba"/><g id="o"><use transform="matrix(0.05,0,0,0.05,0,0)" xlink:href="#ba"/><use transform="matrix(0.05,0,0,0.05,12.950000000000001,0)" xlink:href="#aD"/><use transform="matrix(0.05,0,0,0.05,21.950000000000003,0)" xlink:href="#az"/><use transform="matrix(0.05,0,0,0.05,31.950000000000003,0)" xlink:href="#aH"/></g><path d="M96-169c-40 0-48 33-48 73s9 75 48 75c24 0 41-14 43-38l32 2c-6 37-31 61-74 61-59 0-76-41-82-99-10-93 101-131 147-64 4 7 5 14 7 22l-32 3c-4-21-16-35-41-35" id="bb"/><g id="p"><use transform="matrix(0.05,0,0,0.05,0,0)" xlink:href="#aH"/><use transform="matrix(0.05,0,0,0.05,5.95,0)" xlink:href="#az"/><use transform="matrix(0.05,0,0,0.05,15.949999999999998,0)" xlink:href="#bb"/><use transform="matrix(0.05,0,0,0.05,24.95,0)" xlink:href="#az"/><use transform="matrix(0.05,0,0,0.05,34.95,0)" xlink:href="#aw"/><use transform="matrix(0.05,0,0,0.05,38.900000000000006,0)" xlink:href="#aW"/><use transform="matrix(0.05,0,0,0.05,47.900000000000006,0)" xlink:href="#az"/><use transform="matrix(0.05,0,0,0.05,57.900000000000006,0)" xlink:href="#aH"/></g><g id="q"><use transform="matrix(0.05,0,0,0.05,0,0)" xlink:href="#aL"/><use transform="matrix(0.05,0,0,0.05,12.950000000000001,0)" xlink:href="#aG"/><use transform="matrix(0.05,0,0,0.05,22.950000000000003,0)" xlink:href="#aW"/><use transform="matrix(0.05,0,0,0.05,31.950000000000003,0)" xlink:href="#ax"/></g><g id="r"><use transform="matrix(0.05,0,0,0.05,0,0)" xlink:href="#aX"/><use transform="matrix(0.05,0,0,0.05,10,0)" xlink:href="#aM"/></g><path d="M87 75C49 33 22-17 22-94c0-76 28-126 65-167h31c-38 41-64 92-64 168S80 34 118 75H87" id="bc"/><path d="M33-261c38 41 65 92 65 168S71 34 33 75H2C39 34 66-17 66-93S39-220 2-261h31" id="bd"/><g id="s"><use transform="matrix(0.05,0,0,0.05,0,0)" xlink:href="#aN"/><use transform="matrix(0.05,0,0,0.05,12.950000000000001,0)" xlink:href="#aw"/><use transform="matrix(0.05,0,0,0.05,16.900000000000002,0)" xlink:href="#aD"/><use transform="matrix(0.05,0,0,0.05,25.900000000000002,0)" xlink:href="#aS"/><use transform="matrix(0.05,0,0,0.05,35.900000000000006,0)" xlink:href="#az"/><use transform="matrix(0.05,0,0,0.05,45.900000000000006,0)" xlink:href="#aD"/><use transform="matrix(0.05,0,0,0.05,54.900000000000006,0)" xlink:href="#bc"/><use transform="matrix(0.05,0,0,0.05,60.85,0)" xlink:href="#aH"/><use transform="matrix(0.05,0,0,0.05,66.80000000000001,0)" xlink:href="#az"/><use transform="matrix(0.05,0,0,0.05,76.80000000000001,0)" xlink:href="#bb"/><use transform="matrix(0.05,0,0,0.05,85.80000000000001,0)" xlink:href="#az"/><use transform="matrix(0.05,0,0,0.05,95.80000000000001,0)" xlink:href="#aw"/><use transform="matrix(0.05,0,0,0.05,99.75000000000001,0)" xlink:href="#aW"/><use transform="matrix(0.05,0,0,0.05,108.75,0)" xlink:href="#az"/><use transform="matrix(0.05,0,0,0.05,118.75,0)" xlink:href="#aH"/><use transform="matrix(0.05,0,0,0.05,124.7,0)" xlink:href="#bd"/></g><g id="t"><use transform="matrix(0.05,0,0,0.05,0,0)" xlink:href="#bb"/><use transform="matrix(0.05,0,0,0.05,9,0)" xlink:href="#aS"/><use transform="matrix(0.05,0,0,0.05,19,0)" xlink:href="#aG"/><use transform="matrix(0.05,0,0,0.05,29,0)" xlink:href="#ax"/><use transform="matrix(0.05,0,0,0.05,39,0)" xlink:href="#aQ"/><use transform="matrix(0.05,0,0,0.05,49,0)" xlink:href="#az"/><use transform="matrix(0.05,0,0,0.05,59,0)" xlink:href="#aN"/><use transform="matrix(0.05,0,0,0.05,71.95,0)" xlink:href="#aw"/><use transform="matrix(0.05,0,0,0.05,75.9,0)" xlink:href="#aD"/><use transform="matrix(0.05,0,0,0.05,84.9,0)" xlink:href="#aS"/><use transform="matrix(0.05,0,0,0.05,94.9,0)" xlink:href="#aE"/><use transform="matrix(0.05,0,0,0.05,104.9,0)" xlink:href="#aG"/><use transform="matrix(0.05,0,0,0.05,114.9,0)" xlink:href="#aQ"/><use transform="matrix(0.05,0,0,0.05,124.9,0)" xlink:href="#az"/></g><g id="u"><use transform="matrix(0.05,0,0,0.05,0,0)" xlink:href="#aK"/><use transform="matrix(0.05,0,0,0.05,10,0)" xlink:href="#aD"/><use transform="matrix(0.05,0,0,0.05,19,0)" xlink:href="#az"/><use transform="matrix(0.05,0,0,0.05,29,0)" xlink:href="#aH"/></g><g id="v"><use transform="matrix(0.05,0,0,0.05,0,0)" xlink:href="#aY"/><use transform="matrix(0.05,0,0,0.05,10.5,0)" xlink:href="#aY"/></g><g id="w"><use transform="matrix(0.05,0,0,0.05,0,0)" xlink:href="#aH"/><use transform="matrix(0.05,0,0,0.05,5.95,0)" xlink:href="#az"/><use transform="matrix(0.05,0,0,0.05,15.949999999999998,0)" xlink:href="#bb"/><use transform="matrix(0.05,0,0,0.05,24.95,0)" xlink:href="#az"/><use transform="matrix(0.05,0,0,0.05,34.95,0)" xlink:href="#aw"/><use transform="matrix(0.05,0,0,0.05,38.900000000000006,0)" xlink:href="#aW"/><use transform="matrix(0.05,0,0,0.05,47.900000000000006,0)" xlink:href="#az"/><use transform="matrix(0.05,0,0,0.05,57.900000000000006,0)" xlink:href="#aH"/><use transform="matrix(0.05,0,0,0.05,62.85,0)" xlink:href="#aM"/></g><path d="M18-27v-27l151-64-151-65v-27l175 74v36" id="be"/><path d="M27 0v-27h64v-190l-56 39v-29l58-41h29v221h61V0H27" id="bf"/><g id="x"><use transform="matrix(0.05,0,0,0.05,0,0)" xlink:href="#aK"/><use transform="matrix(0.05,0,0,0.05,10,0)" xlink:href="#aD"/><use transform="matrix(0.05,0,0,0.05,19,0)" xlink:href="#az"/><use transform="matrix(0.05,0,0,0.05,29,0)" xlink:href="#aH"/><use transform="matrix(0.05,0,0,0.05,34.95,0)" xlink:href="#aU"/><use transform="matrix(0.05,0,0,0.05,39.95,0)" xlink:href="#aV"/><use transform="matrix(0.05,0,0,0.05,52.900000000000006,0)" xlink:href="#be"/><use transform="matrix(0.05,0,0,0.05,63.400000000000006,0)" xlink:href="#bf"/></g><g id="y"><use transform="matrix(0.05,0,0,0.05,0,0)" xlink:href="#aT"/><use transform="matrix(0.05,0,0,0.05,16.95,0)" xlink:href="#aw"/><use transform="matrix(0.05,0,0,0.05,20.9,0)" xlink:href="#aD"/><use transform="matrix(0.05,0,0,0.05,29.899999999999995,0)" xlink:href="#aS"/></g><g id="z"><use transform="matrix(0.05,0,0,0.05,0,0)" xlink:href="#aN"/><use transform="matrix(0.05,0,0,0.05,12.950000000000001,0)" xlink:href="#aw"/><use transform="matrix(0.05,0,0,0.05,16.900000000000002,0)" xlink:href="#aD"/><use transform="matrix(0.05,0,0,0.05,25.900000000000002,0)" xlink:href="#aS"/></g><path d="M143 4C61 4 22-44 18-125c-5-107 100-154 193-111 17 8 29 25 37 43l-32 9c-13-25-37-40-76-40-61 0-88 39-88 99 0 61 29 100 91 101 35 0 62-11 79-27v-45h-74v-28h105v86C228-13 192 4 143 4" id="bg"/><g id="A"><use transform="matrix(0.05,0,0,0.05,0,0)" xlink:href="#bg"/><use transform="matrix(0.05,0,0,0.05,14,0)" xlink:href="#aw"/><use transform="matrix(0.05,0,0,0.05,17.95,0)" xlink:href="#aW"/><use transform="matrix(0.05,0,0,0.05,26.950000000000003,0)" xlink:href="#az"/><use transform="matrix(0.05,0,0,0.05,36.95,0)" xlink:href="#aH"/><use transform="matrix(0.05,0,0,0.05,41.900000000000006,0)" xlink:href="#aM"/></g><path d="M59-47c-2 24 18 29 38 22v24C64 9 27 4 27-40v-127H5v-23h24l9-43h21v43h35v23H59v120" id="bh"/><g id="B"><use transform="matrix(0.05,0,0,0.05,0,0)" xlink:href="#aL"/><use transform="matrix(0.05,0,0,0.05,12.950000000000001,0)" xlink:href="#aO"/><use transform="matrix(0.05,0,0,0.05,22.950000000000003,0)" xlink:href="#bh"/><use transform="matrix(0.05,0,0,0.05,27.950000000000003,0)" xlink:href="#az"/><use transform="matrix(0.05,0,0,0.05,37.95,0)" xlink:href="#aD"/></g><g id="C"><use transform="matrix(0.05,0,0,0.05,0,0)" xlink:href="#aR"/><use transform="matrix(0.05,0,0,0.05,12.950000000000001,0)" xlink:href="#aS"/><use transform="matrix(0.05,0,0,0.05,22.950000000000003,0)" xlink:href="#aG"/><use transform="matrix(0.05,0,0,0.05,32.95,0)" xlink:href="#ax"/><use transform="matrix(0.05,0,0,0.05,42.95,0)" xlink:href="#aQ"/><use transform="matrix(0.05,0,0,0.05,52.95,0)" xlink:href="#az"/><use transform="matrix(0.05,0,0,0.05,62.95,0)" xlink:href="#ay"/><use transform="matrix(0.05,0,0,0.05,72.95,0)" xlink:href="#aT"/><use transform="matrix(0.05,0,0,0.05,89.9,0)" xlink:href="#aw"/><use transform="matrix(0.05,0,0,0.05,93.85000000000001,0)" xlink:href="#aD"/><use transform="matrix(0.05,0,0,0.05,102.85000000000001,0)" xlink:href="#aS"/><use transform="matrix(0.05,0,0,0.05,112.85000000000001,0)" xlink:href="#aR"/><use transform="matrix(0.05,0,0,0.05,125.80000000000001,0)" xlink:href="#aO"/><use transform="matrix(0.05,0,0,0.05,135.8,0)" xlink:href="#aI"/><use transform="matrix(0.05,0,0,0.05,150.75,0)" xlink:href="#aI"/><use transform="matrix(0.05,0,0,0.05,165.7,0)" xlink:href="#aG"/><use transform="matrix(0.05,0,0,0.05,175.7,0)" xlink:href="#ax"/><use transform="matrix(0.05,0,0,0.05,185.7,0)" xlink:href="#ay"/></g><g id="D"><use transform="matrix(0.05,0,0,0.05,0,0)" xlink:href="#aN"/><use transform="matrix(0.05,0,0,0.05,12.950000000000001,0)" xlink:href="#aw"/><use transform="matrix(0.05,0,0,0.05,16.900000000000002,0)" xlink:href="#aD"/><use transform="matrix(0.05,0,0,0.05,25.900000000000002,0)" xlink:href="#aS"/><use transform="matrix(0.05,0,0,0.05,35.900000000000006,0)" xlink:href="#az"/><use transform="matrix(0.05,0,0,0.05,45.900000000000006,0)" xlink:href="#aD"/><use transform="matrix(0.05,0,0,0.05,54.900000000000006,0)" xlink:href="#bc"/><use transform="matrix(0.05,0,0,0.05,60.85,0)" xlink:href="#aH"/><use transform="matrix(0.05,0,0,0.05,66.80000000000001,0)" xlink:href="#az"/><use transform="matrix(0.05,0,0,0.05,76.80000000000001,0)" xlink:href="#bb"/><use transform="matrix(0.05,0,0,0.05,85.80000000000001,0)" xlink:href="#az"/><use transform="matrix(0.05,0,0,0.05,95.80000000000001,0)" xlink:href="#aw"/><use transform="matrix(0.05,0,0,0.05,99.75000000000001,0)" xlink:href="#aW"/><use transform="matrix(0.05,0,0,0.05,108.75,0)" xlink:href="#az"/><use transform="matrix(0.05,0,0,0.05,118.75,0)" xlink:href="#aH"/><use transform="matrix(0.05,0,0,0.05,124.7,0)" xlink:href="#bd"/></g><path d="M127-220V0H93v-220H8v-28h204v28h-85" id="bi"/><g id="E"><use transform="matrix(0.05,0,0,0.05,0,0)" xlink:href="#aN"/><use transform="matrix(0.05,0,0,0.05,12.950000000000001,0)" xlink:href="#aw"/><use transform="matrix(0.05,0,0,0.05,16.900000000000002,0)" xlink:href="#aD"/><use transform="matrix(0.05,0,0,0.05,25.900000000000002,0)" xlink:href="#aS"/><use transform="matrix(0.05,0,0,0.05,35.900000000000006,0)" xlink:href="#bi"/><use transform="matrix(0.05,0,0,0.05,44.85000000000001,0)" xlink:href="#az"/><use transform="matrix(0.05,0,0,0.05,54.85,0)" xlink:href="#aA"/><use transform="matrix(0.05,0,0,0.05,63.85,0)" xlink:href="#bh"/><use transform="matrix(0.05,0,0,0.05,68.85000000000001,0)" xlink:href="#aM"/></g><path d="M24 0v-261h32V0H24" id="bj"/><path d="M143 0L79-87 56-68V0H24v-261h32v163l83-92h37l-77 82L181 0h-38" id="bk"/><g id="F"><use transform="matrix(0.05,0,0,0.05,0,0)" xlink:href="#bj"/><use transform="matrix(0.05,0,0,0.05,3.95,0)" xlink:href="#aw"/><use transform="matrix(0.05,0,0,0.05,7.9,0)" xlink:href="#ax"/><use transform="matrix(0.05,0,0,0.05,17.9,0)" xlink:href="#bk"/><use transform="matrix(0.05,0,0,0.05,26.899999999999995,0)" xlink:href="#aM"/></g><g id="G"><use transform="matrix(0.05,0,0,0.05,0,0)" xlink:href="#ay"/><use transform="matrix(0.05,0,0,0.05,10,0)" xlink:href="#az"/><use transform="matrix(0.05,0,0,0.05,20,0)" xlink:href="#bj"/><use transform="matrix(0.05,0,0,0.05,23.95,0)" xlink:href="#az"/><use transform="matrix(0.05,0,0,0.05,33.95,0)" xlink:href="#bh"/><use transform="matrix(0.05,0,0,0.05,38.95,0)" xlink:href="#az"/><use transform="matrix(0.05,0,0,0.05,48.95,0)" xlink:href="#ay"/></g><path d="M63-70H37l-4-178h34zM33 0v-35h34V0H33" id="bl"/><g id="H"><use transform="matrix(0.05,0,0,0.05,0,0)" xlink:href="#bl"/><use transform="matrix(0.05,0,0,0.05,5,0)" xlink:href="#aY"/></g><g id="I"><use transform="matrix(0.05,0,0,0.05,0,0)" xlink:href="#aH"/><use transform="matrix(0.05,0,0,0.05,5.95,0)" xlink:href="#az"/><use transform="matrix(0.05,0,0,0.05,15.949999999999998,0)" xlink:href="#bb"/><use transform="matrix(0.05,0,0,0.05,24.95,0)" xlink:href="#az"/><use transform="matrix(0.05,0,0,0.05,34.95,0)" xlink:href="#aw"/><use transform="matrix(0.05,0,0,0.05,38.900000000000006,0)" xlink:href="#aW"/><use transform="matrix(0.05,0,0,0.05,47.900000000000006,0)" xlink:href="#az"/><use transform="matrix(0.05,0,0,0.05,57.900000000000006,0)" xlink:href="#aH"/></g><g id="J"><use transform="matrix(0.05,0,0,0.05,0,0)" xlink:href="#aO"/><use transform="matrix(0.05,0,0,0.05,10,0)" xlink:href="#aH"/></g><g id="K"><use transform="matrix(0.05,0,0,0.05,0,0)" xlink:href="#aK"/><use transform="matrix(0.05,0,0,0.05,10,0)" xlink:href="#aD"/><use transform="matrix(0.05,0,0,0.05,19,0)" xlink:href="#az"/><use transform="matrix(0.05,0,0,0.05,29,0)" xlink:href="#aH"/><use transform="matrix(0.05,0,0,0.05,34.95,0)" xlink:href="#aU"/><use transform="matrix(0.05,0,0,0.05,39.95,0)" xlink:href="#aV"/><use transform="matrix(0.05,0,0,0.05,52.900000000000006,0)" xlink:href="#aY"/><use transform="matrix(0.05,0,0,0.05,63.400000000000006,0)" xlink:href="#aY"/><use transform="matrix(0.05,0,0,0.05,73.9,0)" xlink:href="#bf"/></g><g id="L"><use transform="matrix(0.05,0,0,0.05,0,0)" xlink:href="#ba"/><use transform="matrix(0.05,0,0,0.05,12.950000000000001,0)" xlink:href="#aD"/><use transform="matrix(0.05,0,0,0.05,21.950000000000003,0)" xlink:href="#az"/><use transform="matrix(0.05,0,0,0.05,31.950000000000003,0)" xlink:href="#aH"/></g><g id="M"><use transform="matrix(0.05,0,0,0.05,0,0)" xlink:href="#bk"/><use transform="matrix(0.05,0,0,0.05,9,0)" xlink:href="#ax"/><use transform="matrix(0.05,0,0,0.05,19,0)" xlink:href="#aO"/><use transform="matrix(0.05,0,0,0.05,29,0)" xlink:href="#aN"/><use transform="matrix(0.05,0,0,0.05,41.95,0)" xlink:href="#ax"/></g><g id="N"><use transform="matrix(0.05,0,0,0.05,0,0)" xlink:href="#aK"/><use transform="matrix(0.05,0,0,0.05,10,0)" xlink:href="#ax"/><use transform="matrix(0.05,0,0,0.05,20,0)" xlink:href="#bk"/><use transform="matrix(0.05,0,0,0.05,29,0)" xlink:href="#ax"/><use transform="matrix(0.05,0,0,0.05,39,0)" xlink:href="#aO"/><use transform="matrix(0.05,0,0,0.05,49,0)" xlink:href="#aN"/><use transform="matrix(0.05,0,0,0.05,61.95,0)" xlink:href="#ax"/><use transform="matrix(0.05,0,0,0.05,71.95,0)" xlink:href="#aM"/></g><g id="O"><use transform="matrix(0.05,0,0,0.05,0,0)" xlink:href="#aE"/><use transform="matrix(0.05,0,0,0.05,10,0)" xlink:href="#aG"/><use transform="matrix(0.05,0,0,0.05,20,0)" xlink:href="#aD"/><use transform="matrix(0.05,0,0,0.05,29,0)" xlink:href="#aD"/><use transform="matrix(0.05,0,0,0.05,38,0)" xlink:href="#aN"/><use transform="matrix(0.05,0,0,0.05,50.95,0)" xlink:href="#aO"/><use transform="matrix(0.05,0,0,0.05,60.95,0)" xlink:href="#aH"/><use transform="matrix(0.05,0,0,0.05,66.9,0)" xlink:href="#ay"/></g><path d="M140-251c81 0 123 46 123 126C263-46 219 4 140 4 59 4 17-45 17-125s42-126 123-126zm0 227c63 0 89-41 89-101s-29-99-89-99c-61 0-89 39-89 99S79-25 140-24" id="bm"/><path d="M194 0L95-120 63-95V0H30v-248h33v124l119-124h40L117-140 236 0h-42" id="bn"/><g id="P"><use transform="matrix(0.05,0,0,0.05,0,0)" xlink:href="#bm"/><use transform="matrix(0.05,0,0,0.05,14,0)" xlink:href="#bn"/></g><g id="Q"><use transform="matrix(0.05,0,0,0.05,0,0)" xlink:href="#aZ"/><use transform="matrix(0.05,0,0,0.05,12,0)" xlink:href="#az"/><use transform="matrix(0.05,0,0,0.05,22,0)" xlink:href="#aD"/><use transform="matrix(0.05,0,0,0.05,31,0)" xlink:href="#aD"/><use transform="matrix(0.05,0,0,0.05,40,0)" xlink:href="#aw"/><use transform="matrix(0.05,0,0,0.05,43.95,0)" xlink:href="#aO"/><use transform="matrix(0.05,0,0,0.05,53.95,0)" xlink:href="#ax"/><use transform="matrix(0.05,0,0,0.05,63.95,0)" xlink:href="#aJ"/></g><g id="R"><use transform="matrix(0.05,0,0,0.05,0,0)" xlink:href="#aZ"/><use transform="matrix(0.05,0,0,0.05,12,0)" xlink:href="#bh"/><use transform="matrix(0.05,0,0,0.05,17,0)" xlink:href="#aH"/><use transform="matrix(0.05,0,0,0.05,22.95,0)" xlink:href="#aw"/><use transform="matrix(0.05,0,0,0.05,26.899999999999995,0)" xlink:href="#ax"/><use transform="matrix(0.05,0,0,0.05,36.9,0)" xlink:href="#aQ"/></g><g id="S"><use transform="matrix(0.05,0,0,0.05,0,0)" xlink:href="#aQ"/><use transform="matrix(0.05,0,0,0.05,10,0)" xlink:href="#aw"/><use transform="matrix(0.05,0,0,0.05,13.949999999999998,0)" xlink:href="#aW"/><use transform="matrix(0.05,0,0,0.05,22.95,0)" xlink:href="#az"/><use transform="matrix(0.05,0,0,0.05,32.95,0)" xlink:href="#aH"/><use transform="matrix(0.05,0,0,0.05,37.900000000000006,0)" xlink:href="#aM"/></g><g id="T"><use transform="matrix(0.05,0,0,0.05,0,0)" xlink:href="#aK"/><use transform="matrix(0.05,0,0,0.05,10,0)" xlink:href="#aD"/><use transform="matrix(0.05,0,0,0.05,19,0)" xlink:href="#az"/><use transform="matrix(0.05,0,0,0.05,29,0)" xlink:href="#aH"/></g><use transform="matrix(0.05,0,0,0.05,0,0)" xlink:href="#bf" id="U"/><g id="V"><use transform="matrix(0.05,0,0,0.05,0,0)" xlink:href="#bc"/><use transform="matrix(0.05,0,0,0.05,5.95,0)" xlink:href="#aL"/><use transform="matrix(0.05,0,0,0.05,18.900000000000002,0)" xlink:href="#aG"/><use transform="matrix(0.05,0,0,0.05,28.900000000000002,0)" xlink:href="#aW"/><use transform="matrix(0.05,0,0,0.05,37.900000000000006,0)" xlink:href="#ax"/></g><g id="W"><use transform="matrix(0.05,0,0,0.05,0,0)" xlink:href="#aw"/><use transform="matrix(0.05,0,0,0.05,3.95,0)" xlink:href="#ax"/><use transform="matrix(0.05,0,0,0.05,13.949999999999998,0)" xlink:href="#ay"/><use transform="matrix(0.05,0,0,0.05,23.95,0)" xlink:href="#az"/><use transform="matrix(0.05,0,0,0.05,33.95,0)" xlink:href="#aS"/><use transform="matrix(0.05,0,0,0.05,43.95,0)" xlink:href="#aO"/><use transform="matrix(0.05,0,0,0.05,53.95,0)" xlink:href="#bj"/><use transform="matrix(0.05,0,0,0.05,57.900000000000006,0)" xlink:href="#ay"/><use transform="matrix(0.05,0,0,0.05,67.9,0)" xlink:href="#az"/><use transform="matrix(0.05,0,0,0.05,77.9,0)" xlink:href="#aH"/></g><path d="M141-36C126-15 110 5 73 4 37 3 15-17 15-53c-1-64 63-63 125-63 3-35-9-54-41-54-24 1-41 7-42 31l-33-3c5-37 33-52 76-52 45 0 72 20 72 64v82c-1 20 7 32 28 27v20c-31 9-61-2-59-35zM48-53c0 20 12 33 32 33 41-3 63-29 60-74-43 2-92-5-92 41zm50-237c26 0 42 16 42 42 0 27-18 40-42 43-25-2-43-16-43-43 0-26 17-42 43-42zm-24 42c-2 26 37 32 45 10 6-16-3-33-21-33-16 0-23 10-24 23" id="bo"/><g id="X"><use transform="matrix(0.05,0,0,0.05,0,0)" xlink:href="#aO"/><use transform="matrix(0.05,0,0,0.05,10,0)" xlink:href="#aQ"/><use transform="matrix(0.05,0,0,0.05,20,0)" xlink:href="#aD"/><use transform="matrix(0.05,0,0,0.05,29,0)" xlink:href="#bo"/></g><g id="Y"><use transform="matrix(0.05,0,0,0.05,0,0)" xlink:href="#aI"/><use transform="matrix(0.05,0,0,0.05,14.950000000000001,0)" xlink:href="#aO"/><use transform="matrix(0.05,0,0,0.05,24.950000000000003,0)" xlink:href="#ay"/><use transform="matrix(0.05,0,0,0.05,34.95,0)" xlink:href="#bh"/><use transform="matrix(0.05,0,0,0.05,39.95,0)" xlink:href="#aG"/><use transform="matrix(0.05,0,0,0.05,49.95,0)" xlink:href="#aQ"/><use transform="matrix(0.05,0,0,0.05,59.95,0)" xlink:href="#az"/><use transform="matrix(0.05,0,0,0.05,69.95,0)" xlink:href="#aH"/></g><g id="Z"><use transform="matrix(0.05,0,0,0.05,0,0)" xlink:href="#ax"/><use transform="matrix(0.05,0,0,0.05,10,0)" xlink:href="#aG"/><use transform="matrix(0.05,0,0,0.05,20,0)" xlink:href="#aW"/><use transform="matrix(0.05,0,0,0.05,29,0)" xlink:href="#ax"/><use transform="matrix(0.05,0,0,0.05,39,0)" xlink:href="#bd"/><use transform="matrix(0.05,0,0,0.05,44.95,0)" xlink:href="#aM"/></g><g id="aa"><use transform="matrix(0.05,0,0,0.05,0,0)" xlink:href="#bf"/><use transform="matrix(0.05,0,0,0.05,10,0)" xlink:href="#aM"/></g><path d="M101-251c82-7 93 87 43 132L82-64C71-53 59-42 53-27h129V0H18c2-99 128-94 128-182 0-28-16-43-45-43s-46 15-49 41l-32-3c6-41 34-60 81-64" id="bp"/><g id="ab"><use transform="matrix(0.05,0,0,0.05,0,0)" xlink:href="#bp"/><use transform="matrix(0.05,0,0,0.05,10,0)" xlink:href="#aM"/></g><g id="ac"><use transform="matrix(0.05,0,0,0.05,0,0)" xlink:href="#bp"/><use transform="matrix(0.05,0,0,0.05,10,0)" xlink:href="#aM"/></g><g id="ad"><use transform="matrix(0.05,0,0,0.05,0,0)" xlink:href="#aN"/><use transform="matrix(0.05,0,0,0.05,12.950000000000001,0)" xlink:href="#aw"/><use transform="matrix(0.05,0,0,0.05,16.900000000000002,0)" xlink:href="#aD"/><use transform="matrix(0.05,0,0,0.05,25.900000000000002,0)" xlink:href="#aS"/><use transform="matrix(0.05,0,0,0.05,35.900000000000006,0)" xlink:href="#az"/><use transform="matrix(0.05,0,0,0.05,45.900000000000006,0)" xlink:href="#aD"/><use transform="matrix(0.05,0,0,0.05,54.900000000000006,0)" xlink:href="#bc"/><use transform="matrix(0.05,0,0,0.05,60.85,0)" xlink:href="#aL"/><use transform="matrix(0.05,0,0,0.05,73.80000000000001,0)" xlink:href="#aG"/><use transform="matrix(0.05,0,0,0.05,83.80000000000001,0)" xlink:href="#aW"/><use transform="matrix(0.05,0,0,0.05,92.80000000000001,0)" xlink:href="#ax"/></g><g id="ae"><use transform="matrix(0.05,0,0,0.05,0,0)" xlink:href="#bp"/><use transform="matrix(0.05,0,0,0.05,10,0)" xlink:href="#bd"/></g><g id="af"><use transform="matrix(0.05,0,0,0.05,0,0)" xlink:href="#aD"/><use transform="matrix(0.05,0,0,0.05,9,0)" xlink:href="#az"/><use transform="matrix(0.05,0,0,0.05,19,0)" xlink:href="#az"/><use transform="matrix(0.05,0,0,0.05,29,0)" xlink:href="#aN"/><use transform="matrix(0.05,0,0,0.05,41.95,0)" xlink:href="#aw"/><use transform="matrix(0.05,0,0,0.05,45.900000000000006,0)" xlink:href="#aD"/><use transform="matrix(0.05,0,0,0.05,54.900000000000006,0)" xlink:href="#aS"/><use transform="matrix(0.05,0,0,0.05,64.9,0)" xlink:href="#aE"/><use transform="matrix(0.05,0,0,0.05,74.9,0)" xlink:href="#aG"/><use transform="matrix(0.05,0,0,0.05,84.9,0)" xlink:href="#aQ"/><use transform="matrix(0.05,0,0,0.05,94.9,0)" xlink:href="#az"/></g><g id="ag"><use transform="matrix(0.05,0,0,0.05,0,0)" xlink:href="#aH"/><use transform="matrix(0.05,0,0,0.05,5.95,0)" xlink:href="#az"/><use transform="matrix(0.05,0,0,0.05,15.949999999999998,0)" xlink:href="#bb"/><use transform="matrix(0.05,0,0,0.05,24.95,0)" xlink:href="#az"/><use transform="matrix(0.05,0,0,0.05,34.95,0)" xlink:href="#aw"/><use transform="matrix(0.05,0,0,0.05,38.900000000000006,0)" xlink:href="#aW"/><use transform="matrix(0.05,0,0,0.05,47.900000000000006,0)" xlink:href="#az"/><use transform="matrix(0.05,0,0,0.05,57.900000000000006,0)" xlink:href="#aH"/></g><use transform="matrix(0.05,0,0,0.05,0,0)" xlink:href="#bp" id="ah"/><g id="ai"><use transform="matrix(0.05,0,0,0.05,0,0)" xlink:href="#aP"/><use transform="matrix(0.05,0,0,0.05,10,0)" xlink:href="#aO"/><use transform="matrix(0.05,0,0,0.05,20,0)" xlink:href="#aQ"/><use transform="matrix(0.05,0,0,0.05,30,0)" xlink:href="#aO"/><use transform="matrix(0.05,0,0,0.05,40,0)" xlink:href="#aK"/><use transform="matrix(0.05,0,0,0.05,50,0)" xlink:href="#bh"/></g><path d="M179-190L93 31C79 59 56 82 12 73V49c39 6 53-20 64-50L1-190h34L92-34l54-156h33" id="bq"/><g id="aj"><use transform="matrix(0.05,0,0,0.05,0,0)" xlink:href="#aL"/><use transform="matrix(0.05,0,0,0.05,12.950000000000001,0)" xlink:href="#bq"/><use transform="matrix(0.05,0,0,0.05,21.950000000000003,0)" xlink:href="#bh"/></g><path d="M233-215c19 21 30 51 30 90C263-46 219 4 140 4c-30 0-54-8-73-20L46 9H12l36-42c-20-21-31-53-31-92 0-80 42-125 123-126 31 0 53 7 73 19l21-26h34zM140-24c87 0 108-103 71-166L87-40c13 10 30 16 53 16zm0-200C53-224 31-122 69-59l124-149c-13-10-30-16-53-16" id="br"/><g id="ak"><use transform="matrix(0.05,0,0,0.05,0,0)" xlink:href="#br"/><use transform="matrix(0.05,0,0,0.05,14,0)" xlink:href="#ax"/><use transform="matrix(0.05,0,0,0.05,24,0)" xlink:href="#aD"/><use transform="matrix(0.05,0,0,0.05,33,0)" xlink:href="#bk"/><use transform="matrix(0.05,0,0,0.05,42,0)" xlink:href="#az"/></g><g id="al"><use transform="matrix(0.05,0,0,0.05,0,0)" xlink:href="#aK"/><use transform="matrix(0.05,0,0,0.05,10,0)" xlink:href="#aD"/><use transform="matrix(0.05,0,0,0.05,19,0)" xlink:href="#az"/><use transform="matrix(0.05,0,0,0.05,29,0)" xlink:href="#aH"/><use transform="matrix(0.05,0,0,0.05,34.95,0)" xlink:href="#aY"/><use transform="matrix(0.05,0,0,0.05,45.45,0)" xlink:href="#aY"/><use transform="matrix(0.05,0,0,0.05,55.95,0)" xlink:href="#aH"/><use transform="matrix(0.05,0,0,0.05,61.900000000000006,0)" xlink:href="#az"/><use transform="matrix(0.05,0,0,0.05,71.9,0)" xlink:href="#bb"/><use transform="matrix(0.05,0,0,0.05,80.9,0)" xlink:href="#az"/><use transform="matrix(0.05,0,0,0.05,90.9,0)" xlink:href="#aw"/><use transform="matrix(0.05,0,0,0.05,94.85000000000001,0)" xlink:href="#aW"/><use transform="matrix(0.05,0,0,0.05,103.85000000000001,0)" xlink:href="#az"/><use transform="matrix(0.05,0,0,0.05,113.85000000000001,0)" xlink:href="#aH"/><use transform="matrix(0.05,0,0,0.05,118.80000000000001,0)" xlink:href="#aM"/></g><g id="am"><use transform="matrix(0.05,0,0,0.05,0,0)" xlink:href="#aK"/><use transform="matrix(0.05,0,0,0.05,10,0)" xlink:href="#aD"/><use transform="matrix(0.05,0,0,0.05,19,0)" xlink:href="#az"/><use transform="matrix(0.05,0,0,0.05,29,0)" xlink:href="#aH"/><use transform="matrix(0.05,0,0,0.05,34.95,0)" xlink:href="#bl"/><use transform="matrix(0.05,0,0,0.05,39.95,0)" xlink:href="#aY"/><use transform="matrix(0.05,0,0,0.05,50.45,0)" xlink:href="#aL"/><use transform="matrix(0.05,0,0,0.05,63.400000000000006,0)" xlink:href="#aK"/><use transform="matrix(0.05,0,0,0.05,73.4,0)" xlink:href="#bj"/><use transform="matrix(0.05,0,0,0.05,77.35000000000001,0)" xlink:href="#bj"/></g><g id="an"><use transform="matrix(0.05,0,0,0.05,0,0)" xlink:href="#bb"/><use transform="matrix(0.05,0,0,0.05,9,0)" xlink:href="#aS"/><use transform="matrix(0.05,0,0,0.05,19,0)" xlink:href="#aG"/><use transform="matrix(0.05,0,0,0.05,29,0)" xlink:href="#ax"/><use transform="matrix(0.05,0,0,0.05,39,0)" xlink:href="#aQ"/><use transform="matrix(0.05,0,0,0.05,49,0)" xlink:href="#az"/><use transform="matrix(0.05,0,0,0.05,59,0)" xlink:href="#aN"/><use transform="matrix(0.05,0,0,0.05,71.95,0)" xlink:href="#aw"/><use transform="matrix(0.05,0,0,0.05,75.9,0)" xlink:href="#aD"/><use transform="matrix(0.05,0,0,0.05,84.9,0)" xlink:href="#aS"/><use transform="matrix(0.05,0,0,0.05,94.9,0)" xlink:href="#aO"/><use transform="matrix(0.05,0,0,0.05,104.9,0)" xlink:href="#aN"/><use transform="matrix(0.05,0,0,0.05,117.85000000000001,0)" xlink:href="#ax"/><use transform="matrix(0.05,0,0,0.05,127.85000000000001,0)" xlink:href="#az"/><use transform="matrix(0.05,0,0,0.05,137.85000000000002,0)" xlink:href="#aH"/><use transform="matrix(0.05,0,0,0.05,143.8,0)" xlink:href="#aE"/><use transform="matrix(0.05,0,0,0.05,153.8,0)" xlink:href="#aG"/><use transform="matrix(0.05,0,0,0.05,163.8,0)" xlink:href="#aQ"/><use transform="matrix(0.05,0,0,0.05,173.8,0)" xlink:href="#az"/></g><g id="ao"><use transform="matrix(0.05,0,0,0.05,0,0)" xlink:href="#aZ"/><use transform="matrix(0.05,0,0,0.05,12,0)" xlink:href="#bj"/><use transform="matrix(0.05,0,0,0.05,15.949999999999998,0)" xlink:href="#az"/><use transform="matrix(0.05,0,0,0.05,25.950000000000003,0)" xlink:href="#bh"/></g><g id="ap"><use transform="matrix(0.05,0,0,0.05,0,0)" xlink:href="#aL"/><use transform="matrix(0.05,0,0,0.05,12.950000000000001,0)" xlink:href="#az"/><use transform="matrix(0.05,0,0,0.05,22.950000000000003,0)" xlink:href="#aN"/><use transform="matrix(0.05,0,0,0.05,35.900000000000006,0)" xlink:href="#aT"/><use transform="matrix(0.05,0,0,0.05,52.85,0)" xlink:href="#aw"/><use transform="matrix(0.05,0,0,0.05,56.80000000000001,0)" xlink:href="#aD"/><use transform="matrix(0.05,0,0,0.05,65.80000000000001,0)" xlink:href="#aS"/><use transform="matrix(0.05,0,0,0.05,75.80000000000001,0)" xlink:href="#aR"/><use transform="matrix(0.05,0,0,0.05,88.75000000000001,0)" xlink:href="#aO"/><use transform="matrix(0.05,0,0,0.05,98.75000000000001,0)" xlink:href="#aI"/><use transform="matrix(0.05,0,0,0.05,113.7,0)" xlink:href="#aI"/><use transform="matrix(0.05,0,0,0.05,128.65,0)" xlink:href="#aG"/><use transform="matrix(0.05,0,0,0.05,138.65,0)" xlink:href="#ax"/><use transform="matrix(0.05,0,0,0.05,148.65,0)" xlink:href="#ay"/></g><g id="aq"><use transform="matrix(0.05,0,0,0.05,0,0)" xlink:href="#ax"/><use transform="matrix(0.05,0,0,0.05,10,0)" xlink:href="#az"/><use transform="matrix(0.05,0,0,0.05,20,0)" xlink:href="#aN"/><use transform="matrix(0.05,0,0,0.05,32.95,0)" xlink:href="#aN"/><use transform="matrix(0.05,0,0,0.05,45.900000000000006,0)" xlink:href="#aw"/><use transform="matrix(0.05,0,0,0.05,49.85000000000001,0)" xlink:href="#aD"/><use transform="matrix(0.05,0,0,0.05,58.85,0)" xlink:href="#aS"/><use transform="matrix(0.05,0,0,0.05,68.85000000000001,0)" xlink:href="#aE"/><use transform="matrix(0.05,0,0,0.05,78.85000000000001,0)" xlink:href="#aG"/><use transform="matrix(0.05,0,0,0.05,88.85000000000001,0)" xlink:href="#aQ"/><use transform="matrix(0.05,0,0,0.05,98.85000000000001,0)" xlink:href="#az"/></g><g id="ar"><use transform="matrix(0.05,0,0,0.05,0,0)" xlink:href="#aN"/><use transform="matrix(0.05,0,0,0.05,12.950000000000001,0)" xlink:href="#aw"/><use transform="matrix(0.05,0,0,0.05,16.900000000000002,0)" xlink:href="#aD"/><use transform="matrix(0.05,0,0,0.05,25.900000000000002,0)" xlink:href="#aS"/><use transform="matrix(0.05,0,0,0.05,35.900000000000006,0)" xlink:href="#bh"/><use transform="matrix(0.05,0,0,0.05,40.900000000000006,0)" xlink:href="#az"/><use transform="matrix(0.05,0,0,0.05,50.900000000000006,0)" xlink:href="#aA"/><use transform="matrix(0.05,0,0,0.05,59.900000000000006,0)" xlink:href="#bh"/><use transform="matrix(0.05,0,0,0.05,64.9,0)" xlink:href="#aM"/></g><g id="as"><use transform="matrix(0.05,0,0,0.05,0,0)" xlink:href="#bj"/><use transform="matrix(0.05,0,0,0.05,3.95,0)" xlink:href="#aw"/><use transform="matrix(0.05,0,0,0.05,7.9,0)" xlink:href="#ax"/><use transform="matrix(0.05,0,0,0.05,17.9,0)" xlink:href="#bk"/></g><path d="M240 0l2-218c-23 76-54 145-80 218h-23L58-218 59 0H30v-248h44l77 211c21-75 51-140 76-211h43V0h-30" id="bs"/><g id="at"><use transform="matrix(0.05,0,0,0.05,0,0)" xlink:href="#bs"/><use transform="matrix(0.05,0,0,0.05,14.950000000000001,0)" xlink:href="#aG"/><use transform="matrix(0.05,0,0,0.05,24.950000000000003,0)" xlink:href="#bk"/><use transform="matrix(0.05,0,0,0.05,33.95,0)" xlink:href="#aw"/><use transform="matrix(0.05,0,0,0.05,37.900000000000006,0)" xlink:href="#ax"/><use transform="matrix(0.05,0,0,0.05,47.900000000000006,0)" xlink:href="#aQ"/><use transform="matrix(0.05,0,0,0.05,57.900000000000006,0)" xlink:href="#aL"/><use transform="matrix(0.05,0,0,0.05,70.85000000000001,0)" xlink:href="#az"/><use transform="matrix(0.05,0,0,0.05,80.85000000000001,0)" xlink:href="#aN"/><use transform="matrix(0.05,0,0,0.05,93.80000000000001,0)" xlink:href="#aT"/><use transform="matrix(0.05,0,0,0.05,110.75,0)" xlink:href="#aw"/><use transform="matrix(0.05,0,0,0.05,114.7,0)" xlink:href="#aD"/><use transform="matrix(0.05,0,0,0.05,123.7,0)" xlink:href="#aS"/></g><g id="au"><use transform="matrix(0.05,0,0,0.05,0,0)" xlink:href="#aR"/><use transform="matrix(0.05,0,0,0.05,12.950000000000001,0)" xlink:href="#aO"/><use transform="matrix(0.05,0,0,0.05,22.950000000000003,0)" xlink:href="#aI"/><use transform="matrix(0.05,0,0,0.05,37.900000000000006,0)" xlink:href="#aI"/><use transform="matrix(0.05,0,0,0.05,52.85,0)" xlink:href="#aG"/><use transform="matrix(0.05,0,0,0.05,62.85,0)" xlink:href="#ax"/><use transform="matrix(0.05,0,0,0.05,72.85000000000001,0)" xlink:href="#ay"/></g><g id="av"><use transform="matrix(0.05,0,0,0.05,0,0)" xlink:href="#aP"/><use transform="matrix(0.05,0,0,0.05,10,0)" xlink:href="#aO"/><use transform="matrix(0.05,0,0,0.05,20,0)" xlink:href="#aQ"/><use transform="matrix(0.05,0,0,0.05,30,0)" xlink:href="#aO"/><use transform="matrix(0.05,0,0,0.05,40,0)" xlink:href="#aK"/><use transform="matrix(0.05,0,0,0.05,50,0)" xlink:href="#bh"/><use transform="matrix(0.05,0,0,0.05,55,0)" xlink:href="#aR"/><use transform="matrix(0.05,0,0,0.05,67.95,0)" xlink:href="#aO"/><use transform="matrix(0.05,0,0,0.05,77.95,0)" xlink:href="#aI"/><use transform="matrix(0.05,0,0,0.05,92.9,0)" xlink:href="#aI"/><use transform="matrix(0.05,0,0,0.05,107.85000000000001,0)" xlink:href="#aG"/><use transform="matrix(0.05,0,0,0.05,117.85000000000001,0)" xlink:href="#ax"/><use transform="matrix(0.05,0,0,0.05,127.85000000000001,0)" xlink:href="#ay"/></g></defs></g></svg>